<?xml version="1.0" standalone="no"?><!DOCTYPE svg PUBLIC "-//W3C//DTD SVG 1.1//EN" "http://www.w3.org/Graphics/SVG/1.1/DTD/svg11.dtd"><svg t="1736503758745" class="icon" viewBox="0 0 1024 1024" version="1.1" xmlns="http://www.w3.org/2000/svg" p-id="1523" xmlns:xlink="http://www.w3.org/1999/xlink" width="200" height="200"><path d="M490.464 32h43.136c1.504 0.256 3.04 0.576 4.544 0.768 20.896 2.528 42.048 3.808 62.688 7.712 109.632 20.736 201.92 73.056 274.144 157.856 99.328 116.64 135.072 251.776 108.512 402.56-15.904 90.336-56.384 169.28-118.848 236.384-79.936 85.856-178.432 136.384-295.04 150.944-64.032 8-127.296 3.264-189.216-14.848-116.416-33.984-207.648-102.304-273.408-204.096-40.832-63.2-64.576-132.64-72.32-207.52-1.024-9.76-1.792-19.52-2.656-29.28v-41.248c0.256-1.824 0.672-3.648 0.768-5.472 1.6-32.224 6.272-64 14.752-95.104 35.04-128.448 110.08-226.688 224.64-294.4 58.432-34.528 121.92-54.592 189.472-61.6 9.6-0.992 19.232-1.824 28.832-2.72zM400.32 735.648l319.744-223.744-319.744-207.776v431.52z" p-id="1524" fill="#ffffff"></path></svg>